<svg xmlns="http://www.w3.org/2000/svg" xmlns:xlink="http://www.w3.org/1999/xlink" width="554" zoomAndPan="magnify" viewBox="0 0 415.5 299.999988" height="400" preserveAspectRatio="xMidYMid meet" version="1.2"><defs><clipPath id="cd4f6debef"><path d="M 0 0.179688 L 415 0.179688 L 415 299.820312 L 0 299.820312 Z M 0 0.179688 "/></clipPath><clipPath id="f788d2d03b"><path d="M 0 0.179688 L 208 0.179688 L 208 162 L 0 162 Z M 0 0.179688 "/></clipPath></defs><g id="465c2c75d4"><g clip-rule="nonzero" clip-path="url(#cd4f6debef)"><path style=" stroke:none;fill-rule:nonzero;fill:#b22334;fill-opacity:1;" d="M 408.484375 23.230469 C 400.5 9.503906 385.8125 0.179688 368.792969 0.179688 L 207.5 0.179688 L 207.5 23.230469 Z M 0.121094 230.671875 L 414.878906 230.671875 L 414.878906 253.722656 L 0.121094 253.722656 Z M 207.5 138.476562 L 414.878906 138.476562 L 414.878906 161.523438 L 207.5 161.523438 Z M 207.5 92.378906 L 414.878906 92.378906 L 414.878906 115.425781 L 207.5 115.425781 Z M 0.121094 184.574219 L 414.878906 184.574219 L 414.878906 207.621094 L 0.121094 207.621094 Z M 46.207031 299.820312 L 368.792969 299.820312 C 385.8125 299.820312 400.5 290.496094 408.484375 276.769531 L 6.515625 276.769531 C 14.5 290.496094 29.191406 299.820312 46.207031 299.820312 Z M 207.5 46.277344 L 414.878906 46.277344 L 414.878906 69.328125 L 207.5 69.328125 Z M 207.5 46.277344 "/></g><path style=" stroke:none;fill-rule:nonzero;fill:#eeeeee;fill-opacity:1;" d="M 0.90625 261.546875 C 1.101562 262.617188 1.320312 263.691406 1.585938 264.738281 C 1.886719 265.902344 2.253906 267.019531 2.644531 268.148438 C 3.671875 271.136719 4.914062 274.015625 6.480469 276.714844 L 6.515625 276.769531 L 408.484375 276.769531 L 408.507812 276.722656 C 410.0625 274.039062 411.304688 271.15625 412.332031 268.183594 C 412.722656 267.042969 413.105469 265.902344 413.402344 264.714844 C 413.667969 263.679688 413.886719 262.617188 414.082031 261.546875 C 414.554688 259.011719 414.878906 256.40625 414.878906 253.722656 L 0.121094 253.722656 C 0.121094 256.40625 0.445312 259 0.90625 261.546875 Z M 0.121094 207.621094 L 414.878906 207.621094 L 414.878906 230.671875 L 0.121094 230.671875 Z M 0.121094 161.523438 L 0.121094 184.574219 L 414.878906 184.574219 L 414.878906 161.523438 Z M 207.5 115.425781 L 414.878906 115.425781 L 414.878906 138.476562 L 207.5 138.476562 Z M 207.5 69.328125 L 414.878906 69.328125 L 414.878906 92.378906 L 207.5 92.378906 Z M 0.121094 46.277344 C 0.121094 43.59375 0.46875 41.011719 0.90625 38.453125 C 0.445312 41 0.121094 43.59375 0.121094 46.277344 Z M 6.515625 23.230469 L 6.480469 23.285156 Z M 1.597656 35.261719 C 1.886719 34.085938 2.289062 32.96875 2.65625 31.839844 C 2.265625 32.96875 1.898438 34.097656 1.597656 35.261719 Z M 207.5 46.277344 L 414.878906 46.277344 C 414.878906 43.59375 414.554688 40.988281 414.082031 38.441406 C 413.886719 37.382812 413.679688 36.320312 413.402344 35.285156 C 413.09375 34.097656 412.722656 32.945312 412.320312 31.804688 C 411.296875 28.832031 410.050781 25.960938 408.496094 23.277344 C 408.507812 23.265625 408.496094 23.242188 408.484375 23.230469 L 207.5 23.230469 Z M 207.5 46.277344 "/><g clip-rule="nonzero" clip-path="url(#f788d2d03b)"><path style=" stroke:none;fill-rule:nonzero;fill:#3c3b6e;fill-opacity:1;" d="M 207.5 0.179688 L 46.207031 0.179688 C 20.757812 0.179688 0.121094 20.820312 0.121094 46.277344 L 0.121094 161.523438 L 207.5 161.523438 Z M 207.5 0.179688 "/></g><path style=" stroke:none;fill-rule:nonzero;fill:#ffffff;fill-opacity:1;" d="M 23.175781 31.597656 L 30.296875 36.769531 L 27.578125 45.125 L 34.683594 39.964844 L 41.804688 45.125 L 39.085938 36.769531 L 46.207031 31.597656 L 37.40625 31.597656 L 34.683594 23.230469 L 31.976562 31.597656 Z M 46.21875 54.644531 L 53.339844 59.820312 L 50.617188 68.175781 L 57.726562 63.011719 L 64.847656 68.175781 L 62.128906 59.820312 L 69.25 54.644531 L 60.445312 54.644531 L 57.726562 46.277344 L 55.019531 54.644531 Z M 92.300781 54.644531 L 99.421875 59.820312 L 96.703125 68.175781 L 103.8125 63.011719 L 110.929688 68.175781 L 108.210938 59.820312 L 115.332031 54.644531 L 106.53125 54.644531 L 103.8125 46.277344 L 101.105469 54.644531 Z M 138.386719 54.644531 L 145.503906 59.820312 L 142.785156 68.175781 L 149.894531 63.011719 L 157.015625 68.175781 L 154.296875 59.820312 L 161.417969 54.644531 L 152.613281 54.644531 L 149.894531 46.277344 L 147.1875 54.644531 Z M 46.21875 100.742188 L 53.339844 105.917969 L 50.617188 114.273438 L 57.726562 109.109375 L 64.847656 114.273438 L 62.128906 105.917969 L 69.25 100.742188 L 60.445312 100.742188 L 57.726562 92.378906 L 55.019531 100.742188 Z M 92.300781 100.742188 L 99.421875 105.917969 L 96.703125 114.273438 L 103.8125 109.109375 L 110.929688 114.273438 L 108.210938 105.917969 L 115.332031 100.742188 L 106.53125 100.742188 L 103.8125 92.378906 L 101.105469 100.742188 Z M 138.386719 100.742188 L 145.503906 105.917969 L 142.785156 114.273438 L 149.894531 109.109375 L 157.015625 114.273438 L 154.296875 105.917969 L 161.417969 100.742188 L 152.613281 100.742188 L 149.894531 92.378906 L 147.1875 100.742188 Z M 69.261719 31.597656 L 76.378906 36.769531 L 73.660156 45.125 L 80.769531 39.964844 L 87.890625 45.125 L 85.171875 36.769531 L 92.289062 31.597656 L 83.488281 31.597656 L 80.769531 23.230469 L 78.0625 31.597656 Z M 115.34375 31.597656 L 122.464844 36.769531 L 119.746094 45.125 L 126.851562 39.964844 L 133.972656 45.125 L 131.253906 36.769531 L 138.375 31.597656 L 129.574219 31.597656 L 126.851562 23.230469 L 124.144531 31.597656 Z M 161.429688 31.597656 L 168.546875 36.769531 L 165.828125 45.125 L 172.9375 39.964844 L 180.058594 45.125 L 177.339844 36.769531 L 184.457031 31.597656 L 175.65625 31.597656 L 172.9375 23.230469 L 170.230469 31.597656 Z M 23.175781 77.695312 L 30.296875 82.871094 L 27.578125 91.222656 L 34.683594 86.0625 L 41.804688 91.222656 L 39.085938 82.871094 L 46.207031 77.695312 L 37.40625 77.695312 L 34.683594 69.328125 L 31.976562 77.695312 Z M 73.660156 91.222656 L 80.769531 86.0625 L 87.890625 91.222656 L 85.171875 82.871094 L 92.289062 77.695312 L 83.488281 77.695312 L 80.769531 69.328125 L 78.0625 77.695312 L 69.261719 77.695312 L 76.378906 82.871094 Z M 115.34375 77.695312 L 122.464844 82.871094 L 119.746094 91.222656 L 126.851562 86.0625 L 133.972656 91.222656 L 131.253906 82.871094 L 138.375 77.695312 L 129.574219 77.695312 L 126.851562 69.328125 L 124.144531 77.695312 Z M 161.429688 77.695312 L 168.546875 82.871094 L 165.828125 91.222656 L 172.9375 86.0625 L 180.058594 91.222656 L 177.339844 82.871094 L 184.457031 77.695312 L 175.65625 77.695312 L 172.9375 69.328125 L 170.230469 77.695312 Z M 23.175781 123.792969 L 30.296875 128.96875 L 27.578125 137.324219 L 34.683594 132.160156 L 41.804688 137.324219 L 39.085938 128.96875 L 46.207031 123.792969 L 37.40625 123.792969 L 34.683594 115.425781 L 31.976562 123.792969 Z M 73.660156 137.324219 L 80.769531 132.160156 L 87.890625 137.324219 L 85.171875 128.96875 L 92.289062 123.792969 L 83.488281 123.792969 L 80.769531 115.425781 L 78.0625 123.792969 L 69.261719 123.792969 L 76.378906 128.96875 Z M 115.34375 123.792969 L 122.464844 128.96875 L 119.746094 137.324219 L 126.851562 132.160156 L 133.972656 137.324219 L 131.253906 128.96875 L 138.375 123.792969 L 129.574219 123.792969 L 126.851562 115.425781 L 124.144531 123.792969 Z M 161.429688 123.792969 L 168.546875 128.96875 L 165.828125 137.324219 L 172.9375 132.160156 L 180.058594 137.324219 L 177.339844 128.96875 L 184.457031 123.792969 L 175.65625 123.792969 L 172.9375 115.425781 L 170.230469 123.792969 Z M 161.429688 123.792969 "/></g></svg>