<svg xmlns="http://www.w3.org/2000/svg" xmlns:xlink="http://www.w3.org/1999/xlink" width="554" zoomAndPan="magnify" viewBox="0 0 415.5 299.999988" height="400" preserveAspectRatio="xMidYMid meet" version="1.2"><defs><clipPath id="6e6e0c69c4"><path d="M 0 0.179688 L 415 0.179688 L 415 99 L 0 99 Z M 0 0.179688 "/></clipPath><clipPath id="674e582cac"><path d="M 0 201 L 415 201 L 415 299.820312 L 0 299.820312 Z M 0 201 "/></clipPath></defs><g id="ed141313c2"><g clip-rule="nonzero" clip-path="url(#6e6e0c69c4)"><path style=" stroke:none;fill-rule:nonzero;fill:#141414;fill-opacity:1;" d="M 368.792969 0.179688 L 46.207031 0.179688 C 20.757812 0.179688 0.121094 20.820312 0.121094 46.277344 L 0.121094 98.140625 L 414.878906 98.140625 L 414.878906 46.277344 C 414.878906 20.820312 394.242188 0.179688 368.792969 0.179688 Z M 368.792969 0.179688 "/></g><g clip-rule="nonzero" clip-path="url(#674e582cac)"><path style=" stroke:none;fill-rule:nonzero;fill:#007a3d;fill-opacity:1;" d="M 0.121094 253.722656 C 0.121094 279.179688 20.757812 299.820312 46.207031 299.820312 L 368.792969 299.820312 C 394.242188 299.820312 414.878906 279.179688 414.878906 253.722656 L 414.878906 201.859375 L 0.121094 201.859375 Z M 0.121094 253.722656 "/></g><path style=" stroke:none;fill-rule:nonzero;fill:#eeeeee;fill-opacity:1;" d="M 0.121094 98.140625 L 414.878906 98.140625 L 414.878906 201.859375 L 0.121094 201.859375 Z M 0.121094 98.140625 "/><path style=" stroke:none;fill-rule:nonzero;fill:#ce1126;fill-opacity:1;" d="M 15.6875 11.75 L 15.675781 11.75 C 6.136719 20.199219 0.121094 32.542969 0.121094 46.277344 L 0.121094 253.722656 C 0.121094 267.46875 6.136719 279.8125 15.6875 288.261719 L 201.738281 150 Z M 15.6875 11.75 "/><path style=" stroke:none;fill-rule:nonzero;fill:#ffffff;fill-opacity:1;" d="M 76.472656 165.417969 L 88.636719 176.667969 L 87.429688 160.128906 L 103.8125 157.628906 L 90.136719 148.269531 L 98.398438 133.898438 L 82.554688 138.753906 L 76.472656 123.332031 L 70.390625 138.753906 L 54.546875 133.898438 L 62.796875 148.269531 L 49.132812 157.628906 L 65.503906 160.128906 L 64.304688 176.667969 Z M 76.472656 165.417969 "/></g></svg>